<mxfile host="65bd71144e">
    <diagram id="sKMdYR7-zpoGA2cVAcW0" name="Sivu-1">
        <mxGraphModel dx="2137" dy="852" grid="1" gridSize="10" guides="1" tooltips="1" connect="1" arrows="1" fold="1" page="1" pageScale="1" pageWidth="850" pageHeight="1100" background="none" math="0" shadow="0">
            <root>
                <mxCell id="0"/>
                <mxCell id="1" parent="0"/>
                <mxCell id="23" value="" style="rounded=1;whiteSpace=wrap;html=1;labelBackgroundColor=#E6E6E6;" parent="1" vertex="1">
                    <mxGeometry x="-40" y="50" width="1380" height="620" as="geometry"/>
                </mxCell>
                <mxCell id="2" value="&lt;font style=&quot;font-size: 14px;&quot;&gt;&lt;b&gt;GLStation SX1303&lt;/b&gt;&lt;/font&gt;" style="html=1;dropTarget=0;whiteSpace=wrap;verticalAlign=top;strokeWidth=3;strokeColor=#1b93ce;fontColor=#1B93CE;" parent="1" vertex="1">
                    <mxGeometry x="286" y="120" width="490" height="490" as="geometry"/>
                </mxCell>
                <mxCell id="15" value="USB:&lt;br&gt;&amp;nbsp;Up-/downlink&lt;br&gt;&amp;nbsp;messages" style="html=1;verticalAlign=bottom;endArrow=block;rounded=0;entryX=1;entryY=0.25;entryDx=0;entryDy=0;exitX=-0.003;exitY=0.144;exitDx=0;exitDy=0;startArrow=block;startFill=1;exitPerimeter=0;edgeStyle=orthogonalEdgeStyle;" parent="1" source="37" target="38" edge="1">
                    <mxGeometry x="0.0952" y="-17" width="80" relative="1" as="geometry">
                        <mxPoint x="149" y="233" as="sourcePoint"/>
                        <mxPoint x="295" y="253" as="targetPoint"/>
                        <mxPoint as="offset"/>
                    </mxGeometry>
                </mxCell>
                <mxCell id="17" value="Sensor 2" style="strokeColor=#dddddd;shadow=1;strokeWidth=1;rounded=1;absoluteArcSize=1;arcSize=2;labelPosition=center;verticalLabelPosition=middle;align=center;verticalAlign=bottom;spacingLeft=0;fontColor=#999999;fontSize=12;whiteSpace=wrap;spacingBottom=2;html=1;" parent="1" vertex="1">
                    <mxGeometry x="50" y="350" width="70" height="85" as="geometry"/>
                </mxCell>
                <mxCell id="18" value="" style="sketch=0;dashed=0;connectable=0;html=1;fillColor=#757575;strokeColor=none;shape=mxgraph.gcp2.beacon;part=1;" parent="17" vertex="1">
                    <mxGeometry x="0.5" width="36.5" height="50" relative="1" as="geometry">
                        <mxPoint x="-18.25" y="10" as="offset"/>
                    </mxGeometry>
                </mxCell>
                <mxCell id="19" value="wireless msg" style="endArrow=none;dashed=1;html=1;dashPattern=1 3;strokeWidth=2;rounded=0;exitX=0.5;exitY=0;exitDx=0;exitDy=0;entryX=0.5;entryY=0.15;entryDx=0;entryDy=0;entryPerimeter=0;fillColor=#f5f5f5;gradientColor=#b3b3b3;strokeColor=#666666;" parent="1" source="17" target="26" edge="1">
                    <mxGeometry x="-0.1524" y="20" width="50" height="50" relative="1" as="geometry">
                        <mxPoint x="110" y="480" as="sourcePoint"/>
                        <mxPoint x="180" y="290" as="targetPoint"/>
                        <Array as="points"/>
                        <mxPoint as="offset"/>
                    </mxGeometry>
                </mxCell>
                <mxCell id="26" value="Antenna of &lt;br&gt;the Base Station&lt;br&gt;" style="fontColor=#0066CC;verticalAlign=bottom;verticalLabelPosition=top;labelPosition=center;align=center;html=1;outlineConnect=0;fillColor=#CCCCCC;strokeColor=#1b93ce;gradientColor=none;gradientDirection=north;strokeWidth=2;shape=mxgraph.networks.radio_tower;" parent="1" vertex="1">
                    <mxGeometry x="180" y="122" width="55" height="100" as="geometry"/>
                </mxCell>
                <mxCell id="40" value="" style="group;strokeColor=#B3B3B3;container=0;" parent="1" vertex="1" connectable="0">
                    <mxGeometry x="576" y="170" width="184" height="230" as="geometry"/>
                </mxCell>
                <mxCell id="43" value="" style="group;strokeColor=#B3B3B3;" parent="1" vertex="1" connectable="0">
                    <mxGeometry x="1075" y="122" width="195" height="288" as="geometry"/>
                </mxCell>
                <mxCell id="30" value="&lt;div style=&quot;font-family: Consolas, &amp;quot;Courier New&amp;quot;, monospace; font-size: 14px; line-height: 19px;&quot;&gt;LoRaWAN&lt;/div&gt;&lt;div style=&quot;font-family: Consolas, &amp;quot;Courier New&amp;quot;, monospace; font-size: 14px; line-height: 19px;&quot;&gt;Network Server&lt;/div&gt;" style="html=1;dropTarget=0;whiteSpace=wrap;verticalAlign=top;align=center;strokeColor=#B3B3B3;" parent="43" vertex="1">
                    <mxGeometry width="195" height="288" as="geometry"/>
                </mxCell>
                <mxCell id="31" value="" style="shape=module;jettyWidth=8;jettyHeight=4;" parent="30" vertex="1">
                    <mxGeometry x="1" width="20" height="20" relative="1" as="geometry">
                        <mxPoint x="-27" y="7" as="offset"/>
                    </mxGeometry>
                </mxCell>
                <mxCell id="44" value="" style="group" parent="1" vertex="1" connectable="0">
                    <mxGeometry x="317" y="170" width="175" height="230" as="geometry"/>
                </mxCell>
                <mxCell id="71" value="" style="group" parent="44" vertex="1" connectable="0">
                    <mxGeometry width="175" height="230" as="geometry"/>
                </mxCell>
                <mxCell id="38" value="LR1302 868 LoRaWAN Hat" style="rounded=0;whiteSpace=wrap;html=1;verticalAlign=top;" parent="71" vertex="1">
                    <mxGeometry width="175" height="230" as="geometry"/>
                </mxCell>
                <mxCell id="39" value="HT1303 USB LoRa gateway module" style="shape=module;align=left;spacingLeft=20;align=center;verticalAlign=top;whiteSpace=wrap;html=1;strokeColor=#B3B3B3;" parent="71" vertex="1">
                    <mxGeometry x="20.5" y="35.973684210526315" width="120" height="66.57894736842105" as="geometry"/>
                </mxCell>
                <mxCell id="82" value="" style="group" parent="71" vertex="1" connectable="0">
                    <mxGeometry x="20.5" y="129.1578947368421" width="120" height="66.57894736842107" as="geometry"/>
                </mxCell>
                <mxCell id="69" value="LK76 GPS" style="shape=module;align=left;spacingLeft=20;align=center;verticalAlign=top;whiteSpace=wrap;html=1;strokeColor=#B3B3B3;" parent="82" vertex="1">
                    <mxGeometry width="120" height="66.57894736842105" as="geometry"/>
                </mxCell>
                <mxCell id="76" value="" style="shape=mxgraph.cisco.wireless.satellite;sketch=0;html=1;pointerEvents=1;dashed=0;fillColor=#036897;strokeColor=#ffffff;strokeWidth=2;verticalLabelPosition=bottom;verticalAlign=top;align=center;outlineConnect=0;labelBackgroundColor=none;fontSize=14;fontColor=#1B93CE;" parent="82" vertex="1">
                    <mxGeometry x="41" y="31.4736842105263" width="54" height="24.210526315789473" as="geometry"/>
                </mxCell>
                <mxCell id="83" value="PPS" style="endArrow=none;html=1;exitX=1;exitY=0.5;exitDx=0;exitDy=0;entryX=1;entryY=0.5;entryDx=0;entryDy=0;" parent="71" source="39" target="69" edge="1">
                    <mxGeometry x="0.0731" y="-10" width="50" height="50" relative="1" as="geometry">
                        <mxPoint x="30.5" y="80.97368421052624" as="sourcePoint"/>
                        <mxPoint x="-97.6617647058822" y="62" as="targetPoint"/>
                        <Array as="points">
                            <mxPoint x="163" y="70"/>
                            <mxPoint x="163" y="160"/>
                        </Array>
                        <mxPoint as="offset"/>
                    </mxGeometry>
                </mxCell>
                <mxCell id="12" value="TCP/IP&lt;br&gt;&amp;nbsp;protobuff msg" style="html=1;verticalAlign=bottom;endArrow=none;rounded=0;entryX=0;entryY=0.5;entryDx=0;entryDy=0;endFill=0;" parent="1" target="47" edge="1">
                    <mxGeometry x="0.1334" y="14" width="80" relative="1" as="geometry">
                        <mxPoint x="760" y="210" as="sourcePoint"/>
                        <mxPoint x="890" y="221" as="targetPoint"/>
                        <mxPoint as="offset"/>
                    </mxGeometry>
                </mxCell>
                <mxCell id="47" value="POE&amp;nbsp;&lt;br&gt;&amp;nbsp;Power injector" style="rounded=0;whiteSpace=wrap;html=1;strokeColor=#B3B3B3;" parent="1" vertex="1">
                    <mxGeometry x="866" y="181" width="120" height="60" as="geometry"/>
                </mxCell>
                <mxCell id="48" value="TCP/IP&lt;br&gt;&amp;nbsp;protobuff msg" style="html=1;verticalAlign=bottom;endArrow=none;rounded=0;entryX=1;entryY=0.5;entryDx=0;entryDy=0;exitX=0;exitY=0.31;exitDx=0;exitDy=0;exitPerimeter=0;endFill=0;" parent="1" source="30" target="47" edge="1">
                    <mxGeometry x="-0.0114" y="-14" width="80" relative="1" as="geometry">
                        <mxPoint x="786" y="227.5" as="sourcePoint"/>
                        <mxPoint x="872.9999999999995" y="228" as="targetPoint"/>
                        <mxPoint as="offset"/>
                    </mxGeometry>
                </mxCell>
                <mxCell id="50" value="Sensor 1" style="strokeColor=#dddddd;shadow=1;strokeWidth=1;rounded=1;absoluteArcSize=1;arcSize=2;labelPosition=center;verticalLabelPosition=middle;align=center;verticalAlign=bottom;spacingLeft=0;fontColor=#999999;fontSize=12;whiteSpace=wrap;spacingBottom=2;html=1;" parent="1" vertex="1">
                    <mxGeometry x="6" y="246" width="70" height="85" as="geometry"/>
                </mxCell>
                <mxCell id="51" value="" style="sketch=0;dashed=0;connectable=0;html=1;fillColor=#757575;strokeColor=none;shape=mxgraph.gcp2.beacon;part=1;" parent="50" vertex="1">
                    <mxGeometry x="0.5" width="36.5" height="50" relative="1" as="geometry">
                        <mxPoint x="-18.25" y="10" as="offset"/>
                    </mxGeometry>
                </mxCell>
                <mxCell id="52" value="wireless msg" style="endArrow=none;dashed=1;html=1;dashPattern=1 3;strokeWidth=2;rounded=0;exitX=0.714;exitY=0.118;exitDx=0;exitDy=0;entryX=0.5;entryY=0.15;entryDx=0;entryDy=0;entryPerimeter=0;exitPerimeter=0;fillColor=#f5f5f5;gradientColor=#b3b3b3;strokeColor=#666666;" parent="1" source="50" edge="1">
                    <mxGeometry x="-0.5399" y="-120" width="50" height="50" relative="1" as="geometry">
                        <mxPoint x="125" y="380" as="sourcePoint"/>
                        <mxPoint x="217.5" y="147.0000000000001" as="targetPoint"/>
                        <Array as="points"/>
                        <mxPoint as="offset"/>
                    </mxGeometry>
                </mxCell>
                <mxCell id="53" value="Sensor 3" style="strokeColor=#dddddd;shadow=1;strokeWidth=1;rounded=1;absoluteArcSize=1;arcSize=2;labelPosition=center;verticalLabelPosition=middle;align=center;verticalAlign=bottom;spacingLeft=0;fontColor=#999999;fontSize=12;whiteSpace=wrap;spacingBottom=2;html=1;" parent="1" vertex="1">
                    <mxGeometry x="140" y="390" width="70" height="85" as="geometry"/>
                </mxCell>
                <mxCell id="54" value="" style="sketch=0;dashed=0;connectable=0;html=1;fillColor=#757575;strokeColor=none;shape=mxgraph.gcp2.beacon;part=1;" parent="53" vertex="1">
                    <mxGeometry x="0.5" width="36.5" height="50" relative="1" as="geometry">
                        <mxPoint x="-18.25" y="10" as="offset"/>
                    </mxGeometry>
                </mxCell>
                <mxCell id="55" value="wireless msg" style="endArrow=none;dashed=1;html=1;dashPattern=1 3;strokeWidth=2;rounded=0;entryX=0.5;entryY=0.15;entryDx=0;entryDy=0;entryPerimeter=0;fillColor=#f5f5f5;strokeColor=#666666;gradientColor=#b3b3b3;" parent="1" source="53" target="26" edge="1">
                    <mxGeometry x="0.4242" y="90" width="50" height="50" relative="1" as="geometry">
                        <mxPoint x="95" y="360" as="sourcePoint"/>
                        <mxPoint x="217.5" y="147.0000000000001" as="targetPoint"/>
                        <Array as="points"/>
                        <mxPoint as="offset"/>
                    </mxGeometry>
                </mxCell>
                <mxCell id="58" value="LoRa antenna" style="endArrow=none;html=1;exitX=0;exitY=0;exitDx=0;exitDy=35;exitPerimeter=0;" parent="1" source="39" target="26" edge="1">
                    <mxGeometry width="50" height="50" relative="1" as="geometry">
                        <mxPoint x="-180" y="370" as="sourcePoint"/>
                        <mxPoint x="-130" y="320" as="targetPoint"/>
                        <Array as="points">
                            <mxPoint x="210" y="240"/>
                        </Array>
                    </mxGeometry>
                </mxCell>
                <mxCell id="59" value="48V" style="text;html=1;strokeColor=none;fillColor=none;align=center;verticalAlign=middle;whiteSpace=wrap;rounded=0;" parent="1" vertex="1">
                    <mxGeometry x="805" y="222" width="37" height="18" as="geometry"/>
                </mxCell>
                <mxCell id="60" value="" style="endArrow=block;html=1;startArrow=none;startFill=0;endFill=1;" parent="1" edge="1">
                    <mxGeometry width="50" height="50" relative="1" as="geometry">
                        <mxPoint x="808" y="230.66000000000003" as="sourcePoint"/>
                        <mxPoint x="778" y="230.66000000000003" as="targetPoint"/>
                        <Array as="points"/>
                    </mxGeometry>
                </mxCell>
                <mxCell id="61" value="Ethernet cable" style="text;html=1;strokeColor=none;fillColor=none;align=center;verticalAlign=middle;whiteSpace=wrap;rounded=0;" parent="1" vertex="1">
                    <mxGeometry x="879.75" y="130" width="92.5" height="18" as="geometry"/>
                </mxCell>
                <mxCell id="67" value="" style="endArrow=none;html=1;startArrow=none;startFill=0;endFill=0;" parent="1" edge="1">
                    <mxGeometry width="50" height="50" relative="1" as="geometry">
                        <mxPoint x="863" y="230.66000000000008" as="sourcePoint"/>
                        <mxPoint x="840" y="231" as="targetPoint"/>
                        <Array as="points"/>
                    </mxGeometry>
                </mxCell>
                <mxCell id="77" value="" style="verticalLabelPosition=bottom;shadow=0;dashed=0;align=center;html=1;verticalAlign=top;shape=mxgraph.electrical.radio.aerial_-_antenna_1;labelBackgroundColor=none;strokeColor=#B3B3B3;strokeWidth=3;fontSize=14;fontColor=#1B93CE;fillColor=default;" parent="1" vertex="1">
                    <mxGeometry x="220" y="258" width="40" height="40" as="geometry"/>
                </mxCell>
                <mxCell id="78" value="GPS antenna&amp;nbsp;" style="endArrow=none;html=1;exitX=0;exitY=0;exitDx=0;exitDy=35;exitPerimeter=0;entryX=0.5;entryY=1;entryDx=0;entryDy=0;entryPerimeter=0;" parent="1" target="77" edge="1">
                    <mxGeometry x="0.0044" y="-15" width="50" height="50" relative="1" as="geometry">
                        <mxPoint x="337.5" y="315" as="sourcePoint"/>
                        <mxPoint x="250" y="300" as="targetPoint"/>
                        <Array as="points">
                            <mxPoint x="240" y="315"/>
                        </Array>
                        <mxPoint as="offset"/>
                    </mxGeometry>
                </mxCell>
                <mxCell id="81" value="UART&lt;br&gt;NMEA" style="html=1;verticalAlign=bottom;endArrow=block;rounded=0;entryX=1;entryY=0.25;entryDx=0;entryDy=0;exitX=0;exitY=0.25;exitDx=0;exitDy=0;startArrow=block;startFill=1;edgeStyle=orthogonalEdgeStyle;" parent="1" edge="1">
                    <mxGeometry x="0.0952" y="-6" width="80" relative="1" as="geometry">
                        <mxPoint x="576" y="346.5" as="sourcePoint"/>
                        <mxPoint x="492" y="346.5" as="targetPoint"/>
                        <mxPoint as="offset"/>
                    </mxGeometry>
                </mxCell>
                <mxCell id="41" value="" style="group;strokeColor=#B3B3B3;container=0;" parent="1" vertex="1" connectable="0">
                    <mxGeometry x="576" y="170" width="184" height="230" as="geometry"/>
                </mxCell>
                <mxCell id="37" value="Luckfox Pico Ultra SBC" style="rounded=0;whiteSpace=wrap;html=1;verticalAlign=top;container=0;" parent="1" vertex="1">
                    <mxGeometry x="576" y="170" width="184" height="400" as="geometry"/>
                </mxCell>
                <mxCell id="4" value="Concentratord&lt;br&gt;app" style="shape=module;align=left;spacingLeft=20;align=center;verticalAlign=top;whiteSpace=wrap;html=1;strokeColor=#B3B3B3;container=0;" parent="1" vertex="1">
                    <mxGeometry x="597.03" y="205.5" width="126.17" height="54.5" as="geometry"/>
                </mxCell>
                <mxCell id="5" value="Mqtt forwarder app&amp;nbsp;" style="shape=module;align=left;spacingLeft=20;align=center;verticalAlign=top;whiteSpace=wrap;html=1;fillColor=default;strokeColor=#B3B3B3;container=0;" parent="1" vertex="1">
                    <mxGeometry x="597.03" y="269" width="126.17" height="50" as="geometry"/>
                </mxCell>
                <mxCell id="49" value="" style="editableCssRules=.*;shape=image;verticalLabelPosition=bottom;labelBackgroundColor=#ffffff;verticalAlign=top;aspect=fixed;imageAspect=0;image=data:image/svg+xml,PHN2ZyB4bWxucz0iaHR0cDovL3d3dy53My5vcmcvMjAwMC9zdmciIHhtbG5zOnY9Imh0dHBzOi8vdmVjdGEuaW8vbmFubyIgd2lkdGg9IjE2LjAwMDAwMTkwNzM0ODYzMyIgaGVpZ2h0PSIxNi4wMDAwMDE5MDczNDg2MzMiIHZpZXdCb3g9Ii03LjE4NzExMDA2NTA3Mzg4N2UtMTMgLTIuNDg2ODk5MTA5MjkyMjI5N2UtMTUgMTYuMDAwMDAxOTA3MzQ4NjMzIDE2LjAwMDAwMTkwNzM0ODYzMyI+JiN4YTsJPHN0eWxlIHR5cGU9InRleHQvY3NzIj4mI3hhOwkuc3Qwe2ZpbGw6IzQyODVmNDt9JiN4YTsJPC9zdHlsZT4mI3hhOwk8cGF0aCBjbGFzcz0ic3QwIiBkPSJNOS44NCA1Ljc3SDYuMTZhLjM5LjM5IDAgMCAwLS4zOS4zOXYzLjY4YS4zOS4zOSAwIDAgMCAuMzkuMzloMy42N2EuMzkuMzkgMCAwIDAgLjM5LS4zOVY2LjE2YS4zOS4zOSAwIDAgMC0uMzktLjM5bTUuODItLjI5YS4zNS4zNSAwIDAgMCAuMzUtLjM1di0uNTdhLjM1LjM1IDAgMCAwLS4zNS0uMzVoLTEuNzlWMi41NGEuMzkuMzkgMCAwIDAtLjM5LS4zOUgxMS44Vi4zNWEuMzUuMzUgMCAwIDAtLjM1LS4zNWgtLjU4YS4zNS4zNSAwIDAgMC0uMzUuMzV2MS43OUg4LjYzVi4zNUEuMzUuMzUgMCAwIDAgOC4yOSAwaC0uNThhLjM1LjM1IDAgMCAwLS4zNS4zNXYxLjc5SDUuNDhWLjM1QS4zNS4zNSAwIDAgMCA1LjEzIDBoLS41OGEuMzUuMzUgMCAwIDAtLjM1LjM1djEuNzlIMi41M2EuMzkuMzkgMCAwIDAtLjM5LjM5VjQuMkguMzVhLjM1LjM1IDAgMCAwLS4zNS4zNXYuNThhLjM1LjM1IDAgMCAwIC4zNS4zNWgxLjc5djEuODhILjM1YS4zNS4zNSAwIDAgMC0uMzUuMzV2LjU4YS4zNS4zNSAwIDAgMCAuMzUuMzVoMS43OXYxLjg5SC4zNWEuMzUuMzUgMCAwIDAtLjM1LjM1di41N2EuMzUuMzUgMCAwIDAgLjM1LjM1aDEuNzl2MS42N2EuMzkuMzkgMCAwIDAgLjM5LjM5SDQuMnYxLjc5YS4zNS4zNSAwIDAgMCAuMzUuMzVoLjU4YS4zNS4zNSAwIDAgMCAuMzUtLjM1di0xLjc5aDEuODh2MS43OWEuMzUuMzUgMCAwIDAgLjM1LjM1aC41OGEuMzUuMzUgMCAwIDAgLjM1LS4zNXYtMS43OWgxLjg5djEuNzlhLjM1LjM1IDAgMCAwIC4zNS4zNWguNTdhLjM1LjM1IDAgMCAwIC4zNS0uMzV2LTEuNzloMS42OGEuMzkuMzkgMCAwIDAgLjM5LS4zOVYxMS44aDEuNzlhLjM1LjM1IDAgMCAwIC4zNC0uMzV2LS41N2EuMzUuMzUgMCAwIDAtLjM1LS4zNWgtMS43OVY4LjY0aDEuNzlhLjM1LjM1IDAgMCAwIC4zNS0uMzV2LS41OGEuMzUuMzUgMCAwIDAtLjM1LS4zNWgtMS43OVY1LjQ4em0tMy4xMSA3LjA3SDMuNDVWMy40Nmg5LjA5eiIvPiYjeGE7PC9zdmc+;container=0;" parent="1" vertex="1">
                    <mxGeometry x="737.92" y="176" width="16" height="16" as="geometry"/>
                </mxCell>
                <mxCell id="79" value="gpsd&lt;br&gt;" style="shape=module;align=left;spacingLeft=20;align=center;verticalAlign=top;whiteSpace=wrap;html=1;fillColor=default;strokeColor=#B3B3B3;container=0;" parent="1" vertex="1">
                    <mxGeometry x="597.03" y="387" width="126.17" height="50" as="geometry"/>
                </mxCell>
                <mxCell id="84" value="Bluetooth GATT server" style="shape=module;align=left;spacingLeft=20;align=center;verticalAlign=top;whiteSpace=wrap;html=1;fillColor=default;strokeColor=#B3B3B3;container=0;" parent="1" vertex="1">
                    <mxGeometry x="597.03" y="446" width="126.17" height="50" as="geometry"/>
                </mxCell>
                <mxCell id="86" value="" style="verticalLabelPosition=bottom;shadow=0;dashed=0;align=center;html=1;verticalAlign=top;shape=mxgraph.electrical.radio.aerial_-_antenna_1;labelBackgroundColor=none;strokeColor=#B3B3B3;strokeWidth=3;fontSize=14;fontColor=#1B93CE;fillColor=default;" parent="1" vertex="1">
                    <mxGeometry x="842" y="310" width="40" height="40" as="geometry"/>
                </mxCell>
                <mxCell id="88" value="WLAN / Bluetooth" style="endArrow=none;html=1;" parent="1" edge="1">
                    <mxGeometry x="0.4521" y="-10" width="50" height="50" relative="1" as="geometry">
                        <mxPoint x="760" y="360" as="sourcePoint"/>
                        <mxPoint x="862" y="350" as="targetPoint"/>
                        <Array as="points">
                            <mxPoint x="860" y="360"/>
                        </Array>
                        <mxPoint as="offset"/>
                    </mxGeometry>
                </mxCell>
                <mxCell id="89" value="Gateway Mesh" style="shape=module;align=left;spacingLeft=20;align=center;verticalAlign=top;whiteSpace=wrap;html=1;fillColor=default;strokeColor=#B3B3B3;container=0;" parent="1" vertex="1">
                    <mxGeometry x="597.03" y="328" width="126.17" height="50" as="geometry"/>
                </mxCell>
                <mxCell id="90" value="WireGuard VPN connections" style="shape=module;align=left;spacingLeft=20;align=center;verticalAlign=top;whiteSpace=wrap;html=1;fillColor=default;strokeColor=#B3B3B3;container=0;" vertex="1" parent="1">
                    <mxGeometry x="597.03" y="505" width="126.17" height="50" as="geometry"/>
                </mxCell>
            </root>
        </mxGraphModel>
    </diagram>
</mxfile>